# xmcd CD database file
#
# Track frame offsets:
#	150
#	17263
#	35959
#	51779
#	69959
#	87178
#	101110
#	118566
#	136948
#	153143
#	171608
#	193265
#	211589
#	231089
#	247930
#	265633
#	281567
#	298096
#	317478
#	334172
#
# Disc length: 4695 seconds
#
# Revision: 1
# Processed by: cddbd v1.5.2PL0 Copyright (c) Steve Scherf et al.
# Submitted via: CDex 2.09
#
DISCID=19125514
DTITLE=Various Artist - R&B Slow Jams - CD2
DYEAR=2019
DGENRE=R&B
TTITLE0=Let Me Blow Ya Mind
TTITLE1=No Diggity
TTITLE2=Get It On Tonite
TTITLE3=Luv U Better
TTITLE4=In My Bed
TTITLE5=Only U
TTITLE6=I'll Make Love to You
TTITLE7=Regulate
TTITLE8=This Is How We Do It
TTITLE9=Caught Out There
TTITLE10=Things We Do for Love
TTITLE11=I Got 5 On It
TTITLE12=Brown Sugar
TTITLE13=On And On
TTITLE14=Brown Skin
TTITLE15=Whatta Man
TTITLE16=If I Ever Fall In Love
TTITLE17=What I Like About You
TTITLE18=Hypnotize
TTITLE19=Dealing
EXTD=YEAR: 2019
EXTT0=
EXTT1=
EXTT2=
EXTT3=
EXTT4=
EXTT5=
EXTT6=
EXTT7=
EXTT8=
EXTT9=
EXTT10=
EXTT11=
EXTT12=
EXTT13=
EXTT14=
EXTT15=
EXTT16=
EXTT17=
EXTT18=
EXTT19=
PLAYORDER=
